<svg width="118" height="31" viewBox="0 0 118 31" fill="none" id="svg-395679835_4723">
  <path d="M117.729 8.69141L118 8.8418V22.8662C118 28.2471 114.393 30.8027 110.785 30.8027C107.719 30.8027 105.796 29.0589 105.585 27.1953C105.404 26.1133 106.065 25.3316 106.938 25.2412C107.869 25.151 108.59 25.7825 108.71 26.6543C108.83 27.3753 108.47 27.8865 108.59 28.668C108.771 29.7507 109.732 30.3521 110.875 30.3223C113.31 30.2916 114.753 28.127 114.753 23.2266V20.8818C114.212 22.5347 112.769 24.4589 110.274 24.459C107.478 24.459 105.374 22.2042 105.374 18.4463V12.2373C105.374 10.7649 104.773 10.2838 103.39 10.2539V9.86328C104.983 9.74298 106.786 9.41218 108.35 8.69043L108.62 8.84082V18.1162C108.62 20.7614 109.612 22.5957 111.747 22.5957C113.701 22.5957 114.603 20.8823 114.753 19.4395V12.2373C114.753 10.7649 114.152 10.2838 112.77 10.2539V9.86328C114.393 9.74297 116.196 9.41312 117.729 8.69141ZM24.1914 0C25.9052 3.26232e-05 27.2939 1.38829 27.2939 3.10059V24.1924C27.2939 25.9047 25.9053 27.2939 24.1914 27.2939H3.10059C1.38842 27.2939 0 25.9047 0 24.1924V3.10059C7.22313e-05 1.38847 1.38831 7.22326e-05 3.10059 0H24.1914ZM70.9521 8.68848C74.529 8.68861 76.6035 11.9846 76.6035 15.0811H66.833C66.7835 15.6268 66.802 16.1758 66.8555 16.7207C66.9011 17.1822 66.9774 17.6421 67.0938 18.0918C67.1983 18.4952 67.3348 18.8911 67.5117 19.2686C67.6737 19.6129 67.8686 19.9424 68.1006 20.2451C68.3191 20.5312 68.5706 20.7923 68.8496 21.0195C69.1256 21.2436 69.4292 21.4346 69.75 21.5879C70.0817 21.7467 70.4314 21.8655 70.7891 21.9473C71.172 22.0353 71.5648 22.0812 71.958 22.0938C72.053 22.0969 72.1491 22.0975 72.2441 22.0967C74.7391 22.0965 76.6662 20.1889 77.1475 17.9346C77.0948 17.5275 77.0674 17.1101 77.0674 16.6865C77.0674 12.1172 80.3438 8.6896 84.3721 8.68945C87.9491 8.68945 90.0234 11.9864 90.0234 15.083H80.2539C80.2044 15.6287 80.2229 16.1778 80.2764 16.7227C80.322 17.1841 80.3973 17.6441 80.5137 18.0938C80.6182 18.4969 80.7549 18.8923 80.9316 19.2695C81.0936 19.6139 81.2895 19.9443 81.5215 20.2471C81.74 20.5331 81.9915 20.7944 82.2705 21.0215C82.5465 21.2455 82.8492 21.4365 83.1699 21.5898C83.5018 21.7487 83.8522 21.8674 84.21 21.9492C84.5927 22.0372 84.9849 22.0831 85.3779 22.0957C85.473 22.0988 85.569 22.0994 85.6641 22.0986C88.1591 22.0986 89.9856 20.4146 90.4668 18.1602L90.4678 18.1562L90.8887 18.2168C90.3477 21.7945 87.4573 24.5301 84.0117 24.5303C80.566 24.5303 78.1078 22.1321 77.3301 18.9199C76.5524 22.1463 73.9021 24.5303 70.5908 24.5303C66.3825 24.5302 63.6465 20.9535 63.6465 16.6846C63.6465 12.1152 66.9237 8.68848 70.9521 8.68848ZM61.7227 8.69141C63.1953 8.69141 64.0975 9.77318 64.0977 10.8857C64.0977 11.8176 63.4965 12.6895 62.3838 12.6895C61.2715 12.6893 61.0009 11.7583 60.7305 11.127C60.5497 10.6765 60.3994 10.4659 60.0088 10.4658C59.077 10.4658 58.0547 12.1567 58.0547 14.209V21.1973C58.0547 23.2716 59.2268 23.8428 60.79 23.8428V24.2334H52.7031V23.8428C53.9054 23.8428 54.8076 23.2716 54.8076 21.1973V12.2686C54.8076 10.7957 54.2363 10.3141 52.8232 10.2842V9.89355C54.4462 9.77324 56.2508 9.44354 57.7842 8.72168L58.0547 8.87109V12.1484C58.5359 10.4343 59.8275 8.69057 61.7217 8.69043L61.7227 8.69141ZM94.4717 23.7227H97.5674C99.9121 23.7224 102.14 21.3767 102.741 18.6113H103.175L102.243 24.2334H90.4893L98.8682 9.50293H95.7119C93.5174 9.50309 91.8293 12.3289 91.3779 14.4629H90.957L91.5723 8.99219H102.876L94.4717 23.7227ZM45.0439 3.18848C49.3427 3.18857 50.9062 5.56379 50.9062 7.99902C50.9061 9.97941 49.6083 12.1284 46.2207 12.7256L45.8857 12.7783C50.6352 13.1086 52.4395 15.363 52.4395 18.4297C52.4393 21.4963 50.0335 24.2314 45.2842 24.2314H35.6641V23.8408C36.8664 23.8408 37.7686 23.2697 37.7686 21.1953V6.22461C37.7686 4.15027 36.8664 3.5791 35.6641 3.5791V3.18848H45.0439ZM41.166 22.7295C41.166 23.2406 41.4973 23.7227 42.459 23.7227H44.3525L44.3535 23.7217C47.2997 23.7216 48.9224 21.4968 48.8926 18.4609C48.8619 15.5452 47.1487 13.3106 43.8721 13.3105H41.166V22.7295ZM8.03711 6.02246C5.41152 6.02271 3.28151 8.15453 3.28125 10.7803V21.2715H12.7979V10.7803C12.7976 8.15438 10.6629 6.02246 8.03711 6.02246ZM19.2549 6.02246C16.6289 6.02246 14.4964 8.15438 14.4961 10.7803V21.2715H24.0127V10.7803C24.0124 8.15451 21.8807 6.02267 19.2549 6.02246ZM70.71 9.31445C68.0719 9.31445 67.2223 11.956 66.8613 14.5713H72.2959C73.1985 14.5713 73.5283 14.1505 73.5283 13.2188C73.5282 11.8065 72.8531 9.31561 70.71 9.31543V9.31445ZM84.1318 9.31445C81.4938 9.31445 80.6442 11.956 80.2832 14.5713H85.7178C86.6197 14.5713 86.9502 14.1506 86.9502 13.2188C86.9501 11.8064 86.2742 9.31543 84.1309 9.31543L84.1318 9.31445ZM41.166 12.7979H44.0225C46.3672 12.7977 47.4488 10.3737 47.4189 8.20898C47.389 6.01444 46.4271 3.84961 43.8418 3.84961H41.166V12.7979Z" fill="#F9F9F9"/>
</svg>
